<svg xmlns="http://www.w3.org/2000/svg" xmlns:xlink="http://www.w3.org/1999/xlink" width="34" height="34" version="1.1" viewBox="0 0 34 34"><title>E443DAAE-A1C3-4B3A-B769-78064330776A</title><g id="---Developers" fill="none" fill-rule="evenodd" stroke="none" stroke-linecap="round" stroke-linejoin="round" stroke-width="1"><g id="Documentation---Wallets" stroke-width="2" transform="translate(-389.000000, -832.000000)"><g id="Transaction-Workflows" transform="translate(390.000000, 833.000000)"><path id="Path" fill="#94D1BE" fill-rule="nonzero" stroke="#074957" d="M6.0833,11.75 C9.2129,11.75 11.75,9.2129 11.75,6.0833 C11.75,2.9537 9.2129,0.41667 6.0833,0.41667 C2.9537,0.41667 0.41666,2.9537 0.41666,6.0833 C0.41666,9.2129 2.9537,11.75 6.0833,11.75 Z"/><path id="Path" fill="#94D1BE" fill-rule="nonzero" stroke="#074957" d="M25.9167,31.5833 C29.0463,31.5833 31.5833,29.0463 31.5833,25.9167 C31.5833,22.7871 29.0463,20.25 25.9167,20.25 C22.7871,20.25 20.25,22.7871 20.25,25.9167 C20.25,29.0463 22.7871,31.5833 25.9167,31.5833 Z"/><path id="Path" stroke="#402B91" d="M17.4167,6.0833 L23.0833,6.0833 C26.2127,6.0833 28.75,8.6206 28.75,11.75 L28.75,14.5833"/><path id="Path" stroke="#736DB1" d="M14.5833,25.9167 L8.9167,25.9167 C5.7872,25.9167 3.25,23.3794 3.25,20.25 L3.25,17.4167"/><polyline id="Path" stroke="#402B91" points="21.667 1.833 17.417 6.083 21.667 10.333"/><polyline id="Path" stroke="#736DB1" points="10.333 21.667 14.583 25.917 10.333 30.167"/></g></g></g></svg>