<svg xmlns="http://www.w3.org/2000/svg" width="50" height="50" fill="none" viewBox="0 0 50 50"><path fill="#92b5d8" d="m36.5 19h-23c-4 0-4.5 3-4.5 3h32s-.5-3-4.5-3z"/><g stroke-linecap="round" stroke-linejoin="round" stroke-miterlimit="10" stroke-width="2"><path stroke="#402b91" d="m41.5 10h-33v12h33z"/><path fill="#94d1be" stroke="#074957" d="m41.5 28h-33v12h33z"/><path stroke="#736db1" d="m16 16h-3"/><path stroke="#074957" d="m16 34h-3"/><path stroke="#736db1" d="m23.5 16h-3"/><path stroke="#074957" d="m23.5 34h-3"/><path stroke="#402b91" d="m35.5 17.5c.8284 0 1.5-.6716 1.5-1.5s-.6716-1.5-1.5-1.5-1.5.6716-1.5 1.5.6716 1.5 1.5 1.5z"/><path fill="#94d1be" stroke="#074957" d="m35.5 35.5c.8284 0 1.5-.6716 1.5-1.5s-.6716-1.5-1.5-1.5-1.5.6716-1.5 1.5.6716 1.5 1.5 1.5z"/><path stroke="#402b91" d="m13 22v3"/><path stroke="#402b91" d="m37 22v3"/></g></svg>